<svg width="35" height="32" viewBox="0 0 35 32" fill="none" xmlns="http://www.w3.org/2000/svg">
<path d="M12.25 2.875H8.77C7.96825 2.87515 7.18765 3.13225 6.54274 3.60858C5.89783 4.08492 5.42256 4.7554 5.18667 5.52167L1.16667 18.5867C1.05656 18.9435 1.00039 19.3149 1 19.6883V26.625C1 27.6196 1.39509 28.5734 2.09835 29.2766C2.80161 29.9799 3.75544 30.375 4.75 30.375H29.75C30.7446 30.375 31.6984 29.9799 32.4016 29.2766C33.1049 28.5734 33.5 27.6196 33.5 26.625V19.6883C33.5 19.315 33.4433 18.9433 33.3333 18.5867L29.3167 5.52167C29.0808 4.7554 28.6055 4.08492 27.9606 3.60858C27.3157 3.13225 26.5351 2.87515 25.7333 2.875H22.25M1 19.125H7.43333C8.12966 19.1252 8.81219 19.3192 9.40446 19.6854C9.99672 20.0516 10.4753 20.5755 10.7867 21.1983L11.2133 22.0517C11.5248 22.6748 12.0037 23.1988 12.5963 23.565C13.1888 23.9312 13.8717 24.1251 14.5683 24.125H19.9317C20.6283 24.1251 21.3112 23.9312 21.9037 23.565C22.4963 23.1988 22.9752 22.6748 23.2867 22.0517L23.7133 21.1983C24.0248 20.5752 24.5037 20.0512 25.0963 19.685C25.6888 19.3188 26.3717 19.1249 27.0683 19.125H33.5M17.25 1.625V15.375M17.25 15.375L12.25 10.375M17.25 15.375L22.25 10.375" stroke="#94A3B8" stroke-width="2" stroke-linecap="round" stroke-linejoin="round"/>
</svg>
